<svg width="103" height="23" viewBox="0 0 103 23" fill="none" xmlns="http://www.w3.org/2000/svg">
<path d="M14.056 14.4H6.256L4.768 18H0.784L8.272 1.2H12.112L19.624 18H15.544L14.056 14.4ZM12.832 11.448L10.168 5.016L7.504 11.448H12.832ZM21.103 0.191999H24.847V18H21.103V0.191999ZM41.6418 5.088V15.84C41.6418 18.208 41.0258 19.968 39.7938 21.12C38.5618 22.272 36.7618 22.848 34.3938 22.848C33.1458 22.848 31.9618 22.696 30.8418 22.392C29.7218 22.088 28.7938 21.648 28.0578 21.072L29.5458 18.384C30.0898 18.832 30.7778 19.184 31.6098 19.44C32.4418 19.712 33.2738 19.848 34.1058 19.848C35.4018 19.848 36.3538 19.552 36.9618 18.96C37.5858 18.384 37.8978 17.504 37.8978 16.32V15.768C36.9218 16.84 35.5618 17.376 33.8178 17.376C32.6338 17.376 31.5458 17.12 30.5538 16.608C29.5778 16.08 28.8018 15.344 28.2258 14.4C27.6498 13.456 27.3618 12.368 27.3618 11.136C27.3618 9.904 27.6498 8.816 28.2258 7.872C28.8018 6.928 29.5778 6.2 30.5538 5.688C31.5458 5.16 32.6338 4.896 33.8178 4.896C35.6898 4.896 37.1138 5.512 38.0898 6.744V5.088H41.6418ZM34.5618 14.304C35.5538 14.304 36.3618 14.016 36.9858 13.44C37.6258 12.848 37.9458 12.08 37.9458 11.136C37.9458 10.192 37.6258 9.432 36.9858 8.856C36.3618 8.264 35.5538 7.968 34.5618 7.968C33.5698 7.968 32.7538 8.264 32.1138 8.856C31.4738 9.432 31.1538 10.192 31.1538 11.136C31.1538 12.08 31.4738 12.848 32.1138 13.44C32.7538 14.016 33.5698 14.304 34.5618 14.304ZM51.2704 18.192C49.9104 18.192 48.6864 17.912 47.5984 17.352C46.5264 16.776 45.6864 15.984 45.0784 14.976C44.4704 13.968 44.1664 12.824 44.1664 11.544C44.1664 10.264 44.4704 9.12 45.0784 8.112C45.6864 7.104 46.5264 6.32 47.5984 5.76C48.6864 5.184 49.9104 4.896 51.2704 4.896C52.6304 4.896 53.8464 5.184 54.9184 5.76C55.9904 6.32 56.8304 7.104 57.4384 8.112C58.0464 9.12 58.3504 10.264 58.3504 11.544C58.3504 12.824 58.0464 13.968 57.4384 14.976C56.8304 15.984 55.9904 16.776 54.9184 17.352C53.8464 17.912 52.6304 18.192 51.2704 18.192ZM51.2704 15.12C52.2304 15.12 53.0144 14.8 53.6224 14.16C54.2464 13.504 54.5584 12.632 54.5584 11.544C54.5584 10.456 54.2464 9.592 53.6224 8.952C53.0144 8.296 52.2304 7.968 51.2704 7.968C50.3104 7.968 49.5184 8.296 48.8944 8.952C48.2704 9.592 47.9584 10.456 47.9584 11.544C47.9584 12.632 48.2704 13.504 48.8944 14.16C49.5184 14.8 50.3104 15.12 51.2704 15.12Z" fill="#2F2E41"/>
<path d="M73.453 9.264C74.413 9.568 75.165 10.08 75.709 10.8C76.253 11.504 76.525 12.376 76.525 13.416C76.525 14.888 75.949 16.024 74.797 16.824C73.661 17.608 71.997 18 69.805 18H61.117V1.2H69.325C71.373 1.2 72.941 1.592 74.029 2.376C75.133 3.16 75.685 4.224 75.685 5.568C75.685 6.384 75.485 7.112 75.085 7.752C74.701 8.392 74.157 8.896 73.453 9.264ZM64.981 4.128V8.088H68.845C69.805 8.088 70.533 7.92 71.029 7.584C71.525 7.248 71.773 6.752 71.773 6.096C71.773 5.44 71.525 4.952 71.029 4.632C70.533 4.296 69.805 4.128 68.845 4.128H64.981ZM69.517 15.072C70.541 15.072 71.309 14.904 71.821 14.568C72.349 14.232 72.613 13.712 72.613 13.008C72.613 11.616 71.581 10.92 69.517 10.92H64.981V15.072H69.517ZM91.8526 11.592C91.8526 11.64 91.8286 11.976 91.7806 12.6H82.0126C82.1886 13.4 82.6046 14.032 83.2606 14.496C83.9166 14.96 84.7326 15.192 85.7086 15.192C86.3806 15.192 86.9726 15.096 87.4846 14.904C88.0126 14.696 88.5006 14.376 88.9486 13.944L90.9406 16.104C89.7246 17.496 87.9486 18.192 85.6126 18.192C84.1566 18.192 82.8686 17.912 81.7486 17.352C80.6286 16.776 79.7646 15.984 79.1566 14.976C78.5486 13.968 78.2446 12.824 78.2446 11.544C78.2446 10.28 78.5406 9.144 79.1326 8.136C79.7406 7.112 80.5646 6.32 81.6046 5.76C82.6606 5.184 83.8366 4.896 85.1326 4.896C86.3966 4.896 87.5406 5.168 88.5646 5.712C89.5886 6.256 90.3886 7.04 90.9646 8.064C91.5566 9.072 91.8526 10.248 91.8526 11.592ZM85.1566 7.728C84.3086 7.728 83.5966 7.968 83.0206 8.448C82.4446 8.928 82.0926 9.584 81.9646 10.416H88.3246C88.1966 9.6 87.8446 8.952 87.2686 8.472C86.6926 7.976 85.9886 7.728 85.1566 7.728ZM102.673 17.376C102.305 17.648 101.849 17.856 101.305 18C100.777 18.128 100.217 18.192 99.6252 18.192C98.0892 18.192 96.8972 17.8 96.0492 17.016C95.2172 16.232 94.8012 15.08 94.8012 13.56V8.256H92.8092V5.376H94.8012V2.232H98.5452V5.376H101.761V8.256H98.5452V13.512C98.5452 14.056 98.6812 14.48 98.9532 14.784C99.2412 15.072 99.6412 15.216 100.153 15.216C100.745 15.216 101.249 15.056 101.665 14.736L102.673 17.376Z" fill="#A32896"/>
</svg>
