<svg width="671" height="676" viewBox="0 0 671 676" fill="none" xmlns="http://www.w3.org/2000/svg">
<g clip-path="url(#clip0_6_60)">
<path d="M169.19 648.41C168.45 648.444 167.717 648.25 167.091 647.854C166.465 647.458 165.976 646.878 165.691 646.195C165.405 645.511 165.336 644.756 165.494 644.033C165.651 643.309 166.027 642.651 166.571 642.148C166.663 641.786 166.728 641.526 166.819 641.163C166.111 639.364 164.881 637.818 163.288 636.722C161.695 635.626 159.811 635.03 157.878 635.012C155.944 634.994 154.049 635.554 152.436 636.619C150.823 637.685 149.564 639.208 148.822 640.994C144.54 651.017 138.998 661.394 141.754 672.434C123.548 633.848 129.739 585.852 156.645 552.854C164.082 548.757 170.11 541.479 171.68 533.027C167.999 534.274 163.41 531.28 166.177 527.403C167.377 525.921 168.588 524.451 169.788 522.969C155.806 508.079 139.147 531.481 154.537 551.579C149.502 557.891 145.141 564.712 141.525 571.931C142.36 564.265 141.364 556.511 138.617 549.306C135.834 542.591 130.617 536.936 126.022 531.131C120.436 524.058 108.939 527.321 108.188 536.297C113.343 537.992 114.013 545.438 108.116 546.458C109.66 563.155 120.569 578.501 135.594 585.824C130.045 601.392 127.879 617.964 129.239 634.435C126.586 615.185 105.923 610.514 91.48 602.863C90.5607 602.273 89.4898 601.964 88.3978 601.973C87.3058 601.982 86.24 602.308 85.3303 602.912C84.4206 603.516 83.7064 604.372 83.2749 605.375C82.8433 606.378 82.713 607.485 82.8999 608.561C84.8933 609.372 86.8013 610.378 88.5957 611.566C89.4365 612.132 90.0819 612.943 90.4434 613.89C90.8049 614.836 90.8648 615.871 90.615 616.853C90.3651 617.835 89.8176 618.716 89.0476 619.374C88.2777 620.033 87.3229 620.437 86.3141 620.532C93.5942 638.55 112.416 650.649 131.748 650.581C133.606 658.654 136.297 666.511 139.779 674.028H168.471C168.574 673.709 168.667 673.38 168.759 673.061C166.103 673.228 163.437 673.069 160.82 672.588C167.846 664.269 173.28 660.025 169.191 648.411L169.19 648.41Z" fill="#F2F2F2"/>
<path d="M424.983 648.41C425.723 648.444 426.455 648.25 427.081 647.854C427.707 647.458 428.196 646.878 428.482 646.195C428.768 645.511 428.837 644.756 428.679 644.033C428.522 643.309 428.145 642.651 427.601 642.148C427.51 641.786 427.445 641.526 427.354 641.163C428.062 639.364 429.292 637.818 430.885 636.722C432.478 635.626 434.362 635.03 436.295 635.012C438.229 634.994 440.123 635.554 441.737 636.619C443.35 637.685 444.609 639.208 445.351 640.994C449.633 651.017 455.175 661.394 452.419 672.434C470.625 633.848 464.434 585.852 437.528 552.854C430.09 548.757 424.062 541.479 422.493 533.027C426.174 534.274 430.763 531.28 427.996 527.403C426.796 525.921 425.585 524.451 424.385 522.969C438.367 508.079 455.026 531.481 439.636 551.579C444.671 557.891 449.031 564.712 452.648 571.931C451.812 564.265 452.809 556.511 455.555 549.306C458.339 542.591 463.556 536.936 468.151 531.131C473.737 524.058 485.234 527.321 485.985 536.297C480.83 537.992 480.16 545.438 486.057 546.458C484.513 563.155 473.604 578.501 458.579 585.824C464.127 601.392 466.294 617.964 464.934 634.435C467.586 615.185 488.25 610.514 502.693 602.863C503.612 602.273 504.683 601.964 505.775 601.973C506.867 601.982 507.933 602.308 508.843 602.912C509.752 603.516 510.466 604.372 510.898 605.375C511.33 606.378 511.46 607.485 511.273 608.561C509.28 609.372 507.372 610.378 505.577 611.566C504.736 612.132 504.091 612.943 503.729 613.89C503.368 614.836 503.308 615.871 503.558 616.853C503.808 617.835 504.355 618.716 505.125 619.374C505.895 620.033 506.85 620.437 507.859 620.532C500.579 638.55 481.756 650.649 462.425 650.581C460.567 658.654 457.876 666.511 454.393 674.028H425.702C425.599 673.709 425.506 673.38 425.414 673.061C428.069 673.228 430.736 673.069 433.353 672.588C426.327 664.269 420.893 660.025 424.982 648.411L424.983 648.41Z" fill="#F2F2F2"/>
<path d="M435.621 652.671L423.265 655.481L406.541 609.159L424.778 605.01L435.621 652.671Z" fill="#FFB6B6"/>
<path d="M438.99 665.461L400.993 674.107L400.883 673.626C399.991 669.704 400.693 665.588 402.836 662.183C404.978 658.778 408.385 656.364 412.307 655.471L412.308 655.471L418.05 648.626L432.199 650.945L435.515 650.191L438.99 665.461Z" fill="#2F2E41"/>
<path d="M634.947 426.88L641.739 437.577L603.711 468.871L593.685 453.082L634.947 426.88Z" fill="#FFB6B6"/>
<path d="M645.866 419.416L666.757 452.311L666.341 452.575C662.945 454.732 658.832 455.451 654.906 454.575C650.98 453.699 647.563 451.299 645.406 447.903L645.405 447.903L637.031 444.789L634.47 430.683L632.646 427.811L645.866 419.416Z" fill="#2F2E41"/>
<path d="M241.075 312.512L238.023 294.823L284.42 273.872L294.44 256.132C294.117 254.575 294.23 252.959 294.767 251.463C295.304 249.966 296.244 248.647 297.484 247.652C298.724 246.656 300.214 246.022 301.791 245.821C303.369 245.619 304.971 245.857 306.421 246.509C307.871 247.161 309.113 248.201 310.01 249.514C310.906 250.827 311.422 252.363 311.5 253.951C311.579 255.539 311.217 257.118 310.454 258.513C309.692 259.908 308.558 261.066 307.179 261.857L290.697 287.34L241.075 312.512Z" fill="#A0616A"/>
<path d="M226.971 298.052L247.865 287.379L253.396 308.147L238.883 318.905L226.971 298.052Z" fill="#6C63FF"/>
<path d="M180.086 651.062L192.719 651.061L198.729 602.332L180.083 602.333L180.086 651.062Z" fill="#A0616A"/>
<path d="M196.923 652.199V643.634L193.602 643.837L180.082 644.638L176.953 644.83L174.561 673.514L174.433 675.052H183.403L183.692 673.525L184.994 666.584L188.358 673.525L189.095 675.052H212.878C214.293 675.043 215.647 674.476 216.647 673.475C217.647 672.473 218.211 671.117 218.217 669.702C219.221 665.014 199.443 654.879 196.923 652.199Z" fill="#2F2E41"/>
<path d="M30.123 457.676L27.178 469.962L73.163 487.168L77.509 469.036L30.123 457.676Z" fill="#A0616A"/>
<path d="M26.0912 473.784L34.4198 475.781L34.9968 472.504L37.3703 459.171L37.9129 456.083L10.5772 447.069L9.11164 446.586L7.02009 455.309L8.43788 455.945L14.8842 458.831L7.34977 460.483L5.69294 460.844L0.147869 483.971C-0.173389 485.349 0.0620294 486.798 0.803051 488.004C1.54407 489.21 2.73084 490.075 4.10563 490.411C8.43049 492.48 22.897 475.61 26.0912 473.784Z" fill="#2F2E41"/>
<path d="M199.62 335.69L183.358 328.088L150.93 367.332L131.178 372.328C129.761 371.606 128.173 371.289 126.588 371.413C125.002 371.538 123.482 372.097 122.196 373.031C120.909 373.965 119.905 375.236 119.295 376.705C118.685 378.173 118.493 379.781 118.74 381.352C118.987 382.923 119.663 384.395 120.694 385.605C121.725 386.816 123.071 387.718 124.582 388.212C126.093 388.705 127.712 388.772 129.259 388.404C130.805 388.035 132.22 387.247 133.347 386.125L162.271 376.933L199.62 335.69Z" fill="#A0616A"/>
<path d="M430.159 190.415C426.712 190.415 423.342 189.392 420.476 187.477C417.61 185.562 415.377 182.841 414.058 179.656C412.738 176.472 412.393 172.968 413.066 169.587C413.738 166.206 415.398 163.101 417.835 160.664C420.273 158.226 423.378 156.566 426.759 155.894C430.139 155.222 433.643 155.567 436.828 156.886C440.012 158.205 442.734 160.439 444.649 163.305C446.564 166.17 447.586 169.54 447.586 172.987C447.581 177.607 445.743 182.037 442.476 185.304C439.209 188.572 434.779 190.409 430.159 190.415ZM430.159 157.559C427.107 157.559 424.125 158.464 421.588 160.159C419.05 161.854 417.073 164.264 415.905 167.083C414.738 169.902 414.432 173.004 415.027 175.997C415.623 178.989 417.092 181.738 419.25 183.896C421.407 186.054 424.156 187.523 427.149 188.118C430.142 188.713 433.244 188.408 436.063 187.24C438.882 186.073 441.291 184.095 442.986 181.558C444.682 179.021 445.586 176.038 445.586 172.987C445.582 168.897 443.955 164.975 441.063 162.083C438.17 159.191 434.249 157.564 430.159 157.559Z" fill="#E6E6E6"/>
<path d="M428.929 179.552C428.894 179.552 428.859 179.551 428.824 179.55C428.514 179.535 428.212 179.453 427.937 179.31C427.662 179.167 427.421 178.967 427.231 178.722L424.486 175.193C424.312 174.97 424.185 174.715 424.11 174.443C424.035 174.171 424.014 173.886 424.049 173.606C424.084 173.326 424.174 173.056 424.314 172.81C424.453 172.565 424.64 172.35 424.863 172.176L424.961 172.099C425.184 171.926 425.439 171.798 425.711 171.723C425.983 171.648 426.268 171.628 426.548 171.663C426.828 171.698 427.099 171.787 427.344 171.927C427.59 172.067 427.805 172.253 427.978 172.476C428.117 172.654 428.292 172.8 428.493 172.904C428.693 173.008 428.913 173.068 429.139 173.079C429.364 173.09 429.589 173.052 429.799 172.968C430.008 172.884 430.197 172.756 430.352 172.592L435.926 166.707C436.319 166.294 436.859 166.053 437.429 166.038C437.999 166.022 438.551 166.233 438.965 166.625L439.057 166.712C439.262 166.906 439.426 167.138 439.542 167.396C439.657 167.654 439.72 167.932 439.727 168.214C439.735 168.496 439.687 168.777 439.586 169.041C439.485 169.304 439.333 169.545 439.139 169.75L430.488 178.881C430.288 179.093 430.046 179.262 429.778 179.377C429.51 179.493 429.221 179.552 428.929 179.552Z" fill="#E6E6E6"/>
<path d="M343.159 401.415C339.712 401.415 336.342 400.392 333.476 398.477C330.61 396.562 328.377 393.841 327.058 390.656C325.738 387.472 325.393 383.968 326.066 380.587C326.738 377.206 328.398 374.101 330.835 371.664C333.273 369.226 336.378 367.566 339.759 366.894C343.139 366.222 346.643 366.567 349.828 367.886C353.012 369.205 355.734 371.439 357.649 374.305C359.564 377.17 360.586 380.54 360.586 383.987C360.581 388.607 358.743 393.037 355.476 396.304C352.209 399.572 347.779 401.409 343.159 401.415ZM343.159 368.559C340.107 368.559 337.125 369.464 334.588 371.159C332.05 372.854 330.073 375.264 328.905 378.083C327.738 380.902 327.432 384.004 328.027 386.997C328.623 389.989 330.092 392.738 332.25 394.896C334.407 397.054 337.156 398.523 340.149 399.118C343.142 399.713 346.244 399.408 349.063 398.24C351.882 397.073 354.291 395.095 355.986 392.558C357.682 390.021 358.586 387.038 358.586 383.987C358.582 379.897 356.955 375.975 354.063 373.083C351.17 370.191 347.249 368.564 343.159 368.559Z" fill="#E6E6E6"/>
<path d="M341.929 390.552C341.894 390.552 341.859 390.551 341.824 390.55C341.514 390.535 341.212 390.453 340.937 390.31C340.662 390.167 340.421 389.967 340.231 389.722L337.486 386.193C337.312 385.97 337.185 385.715 337.11 385.443C337.035 385.171 337.014 384.886 337.049 384.606C337.084 384.326 337.174 384.056 337.314 383.81C337.453 383.565 337.64 383.35 337.863 383.176L337.961 383.099C338.184 382.926 338.439 382.798 338.711 382.723C338.983 382.648 339.268 382.628 339.548 382.663C339.828 382.698 340.099 382.787 340.344 382.927C340.59 383.067 340.805 383.253 340.978 383.476C341.117 383.654 341.292 383.8 341.493 383.904C341.693 384.008 341.913 384.068 342.139 384.079C342.364 384.09 342.589 384.052 342.799 383.968C343.008 383.884 343.197 383.756 343.352 383.592L348.926 377.707C349.319 377.294 349.859 377.053 350.429 377.038C350.999 377.022 351.551 377.233 351.965 377.625L352.057 377.712C352.262 377.906 352.426 378.138 352.542 378.396C352.657 378.654 352.72 378.932 352.727 379.214C352.735 379.496 352.687 379.777 352.586 380.041C352.485 380.304 352.333 380.545 352.139 380.75L343.488 389.881C343.288 390.093 343.046 390.262 342.778 390.377C342.51 390.493 342.221 390.552 341.929 390.552Z" fill="#E6E6E6"/>
<path d="M152.159 166.415C148.712 166.415 145.342 165.392 142.476 163.477C139.61 161.562 137.377 158.841 136.058 155.656C134.739 152.472 134.393 148.968 135.066 145.587C135.738 142.206 137.398 139.101 139.835 136.664C142.273 134.226 145.378 132.566 148.759 131.894C152.139 131.222 155.644 131.567 158.828 132.886C162.013 134.205 164.734 136.439 166.649 139.304C168.564 142.17 169.586 145.54 169.586 148.987C169.581 153.607 167.744 158.037 164.476 161.304C161.209 164.572 156.779 166.409 152.159 166.415ZM152.159 133.559C149.107 133.559 146.125 134.464 143.588 136.159C141.05 137.854 139.073 140.264 137.905 143.083C136.738 145.902 136.432 149.004 137.027 151.997C137.623 154.989 139.092 157.738 141.25 159.896C143.407 162.054 146.156 163.523 149.149 164.118C152.142 164.713 155.244 164.408 158.063 163.24C160.882 162.073 163.291 160.095 164.986 157.558C166.682 155.021 167.586 152.038 167.586 148.987C167.582 144.897 165.955 140.975 163.063 138.083C160.17 135.191 156.249 133.564 152.159 133.559Z" fill="#E6E6E6"/>
<path d="M150.929 155.552C150.894 155.552 150.859 155.551 150.824 155.55C150.514 155.535 150.212 155.453 149.937 155.31C149.662 155.167 149.421 154.967 149.231 154.722L146.486 151.193C146.312 150.97 146.185 150.715 146.11 150.443C146.035 150.171 146.014 149.886 146.049 149.606C146.084 149.326 146.174 149.056 146.314 148.81C146.453 148.565 146.64 148.35 146.863 148.176L146.961 148.099C147.184 147.926 147.439 147.798 147.711 147.723C147.983 147.648 148.268 147.628 148.548 147.663C148.828 147.698 149.099 147.787 149.344 147.927C149.59 148.067 149.805 148.253 149.978 148.476C150.117 148.654 150.292 148.8 150.493 148.904C150.693 149.008 150.913 149.068 151.139 149.079C151.364 149.09 151.589 149.052 151.799 148.968C152.008 148.884 152.197 148.756 152.352 148.592L157.927 142.707C158.319 142.294 158.859 142.053 159.429 142.038C159.999 142.022 160.551 142.233 160.965 142.625L161.057 142.712C161.262 142.906 161.427 143.138 161.542 143.396C161.657 143.654 161.72 143.932 161.727 144.214C161.735 144.496 161.687 144.777 161.586 145.041C161.485 145.304 161.333 145.545 161.139 145.75L152.488 154.881C152.288 155.093 152.046 155.262 151.778 155.377C151.51 155.493 151.221 155.552 150.929 155.552Z" fill="#E6E6E6"/>
<path d="M291.685 466.213C251.272 466.213 204.828 421.367 163.736 442.674C39.3211 507.188 56.4475 399.234 20.7041 359.085L21.8776 356.732C61.3163 392.095 110.557 420.867 164.276 439.936C212.822 457.171 261.731 465.156 305.7 463.049L305.776 465.878C301.133 466.102 296.436 466.214 291.685 466.213Z" fill="#F2F2F2"/>
<path d="M236.249 163.003C240.914 163.003 244.696 157.932 244.696 151.676C244.696 145.42 240.914 140.348 236.249 140.348C231.584 140.348 227.802 145.42 227.802 151.676C227.802 157.932 231.584 163.003 236.249 163.003Z" fill="#E6E6E6"/>
<path d="M333.816 339.713C329.954 342.287 326.001 336.162 329.937 333.703C333.799 331.13 337.752 337.255 333.816 339.713Z" fill="#E6E6E6"/>
<path d="M311.586 133.53C317.662 133.53 322.586 128.605 322.586 122.53C322.586 116.455 317.662 111.53 311.586 111.53C305.511 111.53 300.586 116.455 300.586 122.53C300.586 128.605 305.511 133.53 311.586 133.53Z" fill="#FF6584"/>
<path opacity="0.3" d="M350.06 182.809L412.654 0L343.922 180.621C343.582 181.049 343.35 181.553 343.243 182.09C343.137 182.626 343.16 183.181 343.311 183.707C343.461 184.233 343.735 184.715 344.109 185.114C344.484 185.513 344.948 185.817 345.463 186.001C345.979 186.184 346.53 186.243 347.073 186.171C347.615 186.098 348.132 185.898 348.582 185.586C349.031 185.274 349.4 184.859 349.657 184.376C349.914 183.893 350.052 183.356 350.06 182.809H350.06Z" fill="#F0F0F0"/>
<path d="M286.88 405.524C292.791 405.524 297.583 400.732 297.583 394.821C297.583 388.911 292.791 384.119 286.88 384.119C280.969 384.119 276.178 388.911 276.178 394.821C276.178 400.732 280.969 405.524 286.88 405.524Z" fill="#F2F2F2"/>
<path d="M183.225 398.904C183.225 398.904 156.545 416.277 163.6 427.822C163.843 428.22 131.73 470.633 131.73 470.633L71.1081 466.784L68.9723 487.074L122.942 502.705C122.942 502.705 136.145 512.406 146.345 501.718C156.545 491.031 190.519 458.303 190.519 458.303L192.158 524.379L175.103 615.942L200.568 614.328L225.354 522.467L234.502 418.413L183.225 398.904Z" fill="#2F2E41"/>
<path d="M202.23 294.635L191.01 303.138L178.222 330.431L190.519 347.132C190.519 347.132 200.863 365.059 184.306 382.42C167.749 399.78 155.035 418.323 168.288 417.66C181.54 416.998 235.213 444.298 235.566 421.932C235.919 399.567 236.634 382.42 236.634 382.42L250.705 346.729C250.705 346.729 259.089 325.437 253.203 319.064C247.317 312.69 239.436 304.546 239.436 304.546L225.104 290.214H212.163L202.23 294.635Z" fill="#6C63FF"/>
<path d="M223.175 242.194C248.345 256.517 227.681 294.308 202.042 280.851C176.872 266.528 197.536 228.737 223.175 242.194Z" fill="#A0616A"/>
<path d="M236.634 250.135C234.87 252.429 231.185 251.353 223.97 252.99C223.985 250.544 223.703 248.106 223.128 245.728C222.591 248.672 221.415 251.462 219.681 253.901C213.416 254.596 221.097 273.631 217.889 287.626C213.755 258.101 205.061 265.836 209.453 271.692C212.265 275.441 210.39 286.688 201.955 281.065C188.037 287.679 168.214 254.821 190.184 239.412C189.791 231.082 199.06 229.766 204.767 232.327C218.617 222.009 234.442 235.23 236.634 250.135Z" fill="#2F2E41"/>
<path d="M172.052 228.591C166.448 263.046 136.412 222.255 122.289 256.161C117.848 268.44 125.467 277.224 130.286 287.416C131.386 295.793 120.489 300.042 119.348 307.752C119.03 325.429 147.548 324.347 155.52 313.195C163.712 301.52 153.93 285.857 158.854 273.326C165.774 255.929 193.917 255.8 196.369 235.559C191.621 228.797 178.853 221.053 172.052 228.591Z" fill="#2F2E41"/>
<path d="M194.753 231.958C194.57 232.035 194.386 232.112 194.222 232.199H194.213C194.058 232.276 193.904 232.354 193.75 232.44C193.73 232.45 193.721 232.46 193.701 232.469C193.499 232.276 193.296 232.083 193.084 231.89C193.029 232.205 193.042 232.527 193.122 232.836L193.151 232.952C193.344 233.154 193.547 233.347 193.759 233.55C193.952 233.405 194.136 233.251 194.329 233.106C194.444 233.01 194.56 232.913 194.686 232.817C194.705 232.566 194.734 232.276 194.763 231.958L194.753 231.958ZM200.562 221.228C196.258 220.244 194.869 225.87 194.454 228.581C192.891 218.739 186.388 221.836 188.636 228.552C189.352 230.54 190.48 232.355 191.945 233.878C192.148 234.11 192.37 234.341 192.601 234.573C192.341 235.924 193.653 235.576 195.429 234.332C196.739 233.399 197.952 232.336 199.047 231.157C202.588 227.442 205.348 222.473 200.562 221.228ZM200.697 226.767C199.369 228.479 197.88 230.059 196.249 231.485C195.737 231.948 195.216 232.392 194.686 232.817C194.676 232.904 194.676 232.981 194.666 233.048C194.629 233.142 194.584 233.232 194.531 233.318C193.991 234.293 193.383 233.762 193.151 232.952C193.132 232.923 193.103 232.894 193.084 232.865C192.313 232.068 191.642 231.181 191.087 230.221C187.102 223.313 193.518 218.614 193.2 231.514C193.141 231.632 193.102 231.76 193.084 231.89C193.029 232.205 193.042 232.527 193.122 232.836L193.151 232.952C193.344 233.154 193.547 233.347 193.759 233.55C193.952 233.405 194.136 233.251 194.329 233.106C194.444 233.01 194.56 232.913 194.686 232.817C194.705 232.566 194.734 232.276 194.763 231.958V231.948C195.014 229.362 195.699 224.712 196.963 223.448C199.742 221.315 203.341 223.621 200.697 226.767ZM194.753 231.958C194.57 232.035 194.386 232.112 194.222 232.199H194.213C194.058 232.276 193.904 232.354 193.75 232.44C193.73 232.45 193.721 232.46 193.701 232.469C193.499 232.276 193.296 232.083 193.084 231.89C193.029 232.205 193.042 232.527 193.122 232.836L193.151 232.952C193.344 233.154 193.547 233.347 193.759 233.55C193.952 233.405 194.136 233.251 194.329 233.106C194.444 233.01 194.56 232.913 194.686 232.817C194.705 232.566 194.734 232.276 194.763 231.958L194.753 231.958Z" fill="#2F2E41"/>
<path d="M427.397 421.918L418.1 446.161L374.492 532.181L412.81 632.248L432.586 627.028L416.287 532.181L463.05 475.361L518.586 513.028C518.586 513.028 543.216 532.256 552.586 514.028C561.956 495.799 622.586 457.028 622.586 457.028L607.586 441.028L537.768 473.702L489.579 405.874L427.397 421.918Z" fill="#2F2E41"/>
<path d="M474.303 307.563L459 291.122L432.75 287.511L400.586 310.028L400.91 334.951L416.81 393.68C416.81 393.68 410.754 435.874 427.67 435.451C444.586 435.028 453.807 426.594 460.697 428.311C467.586 430.028 496.874 437.334 498.73 429.681C500.586 422.028 510.453 427.508 510.019 420.268C509.586 413.028 483.31 360.841 483.31 360.841L489.844 308.649L474.303 307.563Z" fill="#6C63FF"/>
<path d="M571.194 231.883C571.331 233.246 571.167 234.623 570.715 235.916C570.262 237.21 569.531 238.388 568.574 239.368C567.616 240.349 566.455 241.107 565.173 241.591C563.891 242.074 562.518 242.27 561.152 242.165L525.961 309.092L516.513 294.588L552.483 231.424C552.811 229.14 553.965 227.056 555.727 225.567C557.489 224.077 559.736 223.286 562.042 223.342C564.349 223.399 566.554 224.3 568.241 225.874C569.928 227.448 570.978 229.586 571.194 231.883Z" fill="#FFB6B6"/>
<path d="M460.41 320.007C460.41 320.007 459.014 331.912 472.416 334.859C485.818 337.807 522.949 316.59 529.036 313.35C530.942 312.335 533.528 307.361 536.182 301.008C537.374 298.155 538.579 295.024 539.742 291.849C540.415 290.011 543.638 289.51 544.272 287.687C544.903 285.875 542.945 282.741 543.516 281.033C546.228 272.926 548.149 266.493 548.149 266.493L539.266 249.808C526.843 256.376 520.471 270.842 515.785 287.509L460.41 320.007Z" fill="#6C63FF"/>
<path d="M303.89 247.252C304.099 248.606 304.602 249.898 305.364 251.037C306.126 252.176 307.128 253.134 308.3 253.844C309.473 254.553 310.786 254.997 312.149 255.144C313.511 255.291 314.889 255.137 316.186 254.694L367.006 310.684L372.523 294.278L321.891 242.125C321.002 239.996 319.363 238.267 317.284 237.266C315.206 236.265 312.832 236.061 310.613 236.693C308.395 237.325 306.485 238.749 305.245 240.695C304.006 242.641 303.524 244.974 303.89 247.252Z" fill="#FFB6B6"/>
<path d="M433.203 304.848C433.203 304.848 437.533 316.024 425.295 322.232C413.057 328.439 371.799 317.19 365.094 315.576C362.995 315.071 359.246 310.903 355.087 305.415C353.219 302.952 351.269 300.222 349.348 297.439C348.237 295.828 344.991 296.149 343.921 294.543C342.856 292.946 343.968 289.423 342.987 287.912C338.333 280.741 334.864 274.994 334.864 274.994L339.288 256.616C352.959 259.866 362.749 272.278 371.457 287.242L433.203 304.848Z" fill="#6C63FF"/>
<path d="M446.399 283.329C460.193 283.329 471.375 272.147 471.375 258.353C471.375 244.559 460.193 233.377 446.399 233.377C432.605 233.377 421.423 244.559 421.423 258.353C421.423 272.147 432.605 283.329 446.399 283.329Z" fill="#FFB6B6"/>
<path d="M474.909 244.052C472.282 239.987 467.352 237.279 462.573 238.04C462.128 234.99 460.855 232.12 458.892 229.743C456.929 227.366 454.352 225.574 451.44 224.56C448.529 223.547 445.396 223.352 442.382 223.996C439.367 224.64 436.587 226.099 434.345 228.213C433.607 227.694 432.748 227.374 431.85 227.284C430.953 227.194 430.047 227.338 429.221 227.701C427.576 228.449 426.145 229.597 425.059 231.041C422.317 234.462 420.553 238.561 419.956 242.904C419.358 247.247 419.95 251.671 421.667 255.705C421.083 253.581 423.211 251.583 425.361 251.107C427.511 250.63 429.767 251.081 431.947 250.771C434.742 250.373 437.254 248.752 440.053 248.387C442.426 248.233 444.807 248.539 447.064 249.288C449.321 250.038 451.699 250.357 454.073 250.229C456.429 249.95 459.464 258.877 459.423 265.165C459.415 266.357 459.661 267.887 460.825 268.14C462.259 268.451 463.09 266.472 464.455 265.932C465.084 265.752 465.759 265.823 466.337 266.13C466.915 266.438 467.351 266.957 467.553 267.58C467.725 268.212 467.743 268.877 467.607 269.518C467.47 270.16 467.182 270.759 466.767 271.267C465.928 272.273 464.932 273.137 463.817 273.825L464.379 274.293C464.913 274.857 465.626 275.217 466.396 275.313C467.167 275.409 467.947 275.234 468.602 274.818C469.891 273.945 470.935 272.756 471.634 271.365C474.269 267.291 476.152 262.778 477.195 258.04C478.075 253.281 477.536 248.116 474.909 244.052Z" fill="#2F2E41"/>
<path d="M659.682 342.559C627.467 366.959 563.366 359.25 543.474 401.046C483.246 527.591 431.72 431.194 378.986 420.769L378.501 418.185C431.291 422.563 487.915 415.77 542.252 398.537C591.356 382.966 635.166 359.802 668.944 331.575L670.713 333.785C667.147 336.767 663.47 339.691 659.682 342.559Z" fill="#F2F2F2"/>
<path d="M523.476 673.996C522.709 676.269 84.6349 676.269 83.807 674.002C84.5733 671.724 522.647 671.724 523.476 673.996Z" fill="#CCCCCC"/>
</g>
<defs>
<clipPath id="clip0_6_60">
<rect width="670.713" height="675.702" fill="white"/>
</clipPath>
</defs>
</svg>
